<svg xmlns="http://www.w3.org/2000/svg" viewBox="15.898 107.989 212.966 76.032" width="212.966" height="76.032" xmlns:v="https://vecta.io/nano"><defs><linearGradient y2="126.613" x2="67.055" y1="123.218" x1="126.258" id="A" gradientUnits="userSpaceOnUse"><stop offset="0" stop-color="#b380ff"/><stop offset="1" stop-color="#b380ff" stop-opacity="0"/></linearGradient></defs><path d="M17.316 148.643l15.072-3.772 14.108-3.913 6.678-2.445 6.253-3.248 4.361-3.613 4.113-4.431 2.536-3.246 2.424-3.307a54.02 54.02 0 0 0 3.157-4.932c1.203-2.135 2.905-4.371 5.179-5.25 1.379-.533 2.543-.569 4.339.292 0 0-2.58-.224-3.654.406-1.42.835-2.144 2.552-2.907 4.011-.754 1.444-1.33 3.006-1.599 4.593-.21 1.242-.146 2.516.01 3.749a10.37 10.37 0 0 0 .628 2.464c.597 1.531 1.244 3.109 2.336 4.32.817.907 1.919 1.543 3.027 2.069 1.825.866 3.827 1.395 5.84 1.73 1.778.296 3.615.234 5.431.235 5.215.004 15.664-.651 15.664-.651l27.151-.592 20.084-.644 23.209-.749 23.619-.74 2.634.006-7.35.993-11.224 1.387-9.837 1.152-8.332 1.062-9.569 1.253-13.907 1.823-7.06.983-13.353 2.007-10.938 1.9-7.55 1.326c-9.473 1.175-16.453 2.469-24.49 4.706-3.179.885-6.352 1.938-9.322 3.43-2.268 1.139-4.398 2.588-6.397 4.17-2.302 1.822-4.439 3.875-6.382 6.079-1.377 1.563-2.542 3.301-3.702 5.027a73.85 73.85 0 0 0-3.491 5.719c-1.372 2.507-3.749 7.7-3.749 7.7s2.305-8.306 2.948-12.535c.358-2.351.612-4.737.5-7.091-.096-2.01-.208-4.102-1-5.919-.743-1.705-1.949-3.236-3.395-4.39-1.98-1.579-4.447-2.541-6.894-3.195-2.556-.683-5.261-.627-7.906-.698-2.56-.068-5.12.155-7.679.266l-9.615.502z" stroke="#000" stroke-opacity=".698" stroke-width=".26"/><path d="M68.992 129.947a36.46 36.46 0 0 0 .377 5.104c.222 1.463.513 2.424 1.127 3.695s1.719 3.148 3.613 3.688 5.991.154 8.663-.17 4.48-.639 6.36-1.123l7.406-2.301 14.013-4.465 15.148-4.633c4.58-1.46 12.119-4.138 11.985-4.108s-21.098 5.671-29.438 7.971l-17.821 4.992c-3.487.967-4.475 1.177-5.735 1.282s-2.794.105-4.191-.053-2.658-.473-3.866-1.05-2.364-1.418-3.362-2.469-1.856-2.338-2.471-4.09-1.39-6.079-1.436-6.161-.365 2.266-.372 3.889z" fill="url(#A)" transform="matrix(.958902 .238867 -.283738 .972179 47.512497 -22.127128)"/></svg>